# AST/ASF file generated using VICON BodyLanguage
# -----------------------------------------------
:version 1.10
:name VICON
:units
  mass 1.0
  length 0.45
  angle deg
:documentation
   .ast/.asf automatically generated from VICON data using
   VICON BodyBuilder and BodyLanguage model FoxedUp or BRILLIANT.MOD
:root
   order TX TY TZ RX RY RZ
   axis XYZ
   position 0 0 0  
   orientation 0 0 0 
:bonedata
  begin
     id 1 
     name lhipjoint
     direction 0.567725 -0.736092 0.368589 
     length 2.42353 
     axis 0 0 0  XYZ
  end
  begin
     id 2 
     name lfemur
     direction 0.34202 -0.939693 0  
     length 7.24894  
     axis 0 0 20  XYZ
    dof rx ry rz
    limits (-160.0 20.0)
           (-70.0 70.0)
           (-60.0 70.0)
  end
  begin
     id 3 
     name ltibia
     direction 0.34202 -0.939693 0   
     length 7.6997   
     axis 0 0 20   XYZ
    dof rx
    limits (-10.0 170.0)
  end
  begin
     id 4 
     name lfoot
     direction 0.100767 -0.276854 0.955614   
     length 2.37556   
     axis -90 7.62852e-016 20   XYZ
    dof rx rz
    limits (-45.0 90.0)
           (-70.0 20.0)
  end
  begin
     id 5 
     name ltoes
     direction 1.53592e-011 -4.21894e-011 1   
     length 1.18363   
     axis -90 7.62852e-016 20   XYZ
    dof rx
    limits (-90.0 20.0)
  end
  begin
     id 6 
     name rhipjoint
     direction -0.556459 -0.742938 0.372017   
     length 2.4012  
     axis 0 0 0  XYZ 
  end
  begin
     id 7 
     name rfemur
     direction -0.34202 -0.939693 0   
     length 7.5119   
     axis 0 0 -20   XYZ
    dof rx ry rz
    limits (-160.0 20.0)
           (-70.0 70.0)
           (-70.0 60.0)
  end
  begin
     id 8 
     name rtibia
     direction -0.34202 -0.939693 0   
     length 7.50155   
     axis 0 0 -20   XYZ
    dof rx
    limits (-10.0 170.0)
 end
 begin
     id 9 
     name rfoot
     direction -0.118427 -0.325376 0.938139   
     length 2.32487  
     axis -90 -7.62852e-016 -20   XYZ
    dof rx rz
    limits (-45.0 90.0)
           (-20.0 70.0)
  end
  begin
     id 10 
     name rtoes
     direction -1.53525e-011 -4.21868e-011 1   
     length 1.15233   
     axis -90 -7.62852e-016 -20   XYZ
    dof rx
    limits (-90.0 20.0)
  end
  begin
     id 11 
     name lowerback
     direction 0.0287568 0.999577 -0.00434502   
     length 2.15243   
     axis 0 0 0   XYZ
    dof rx ry rz
    limits (-20.0 45.0)
           (-30.0 30.0)
           (-30.0 30.0)
  end
  begin
     id 12 
     name upperback
     direction 0.0294009 0.99956 0.00404628   
     length 2.15427   
     axis 0 0 0   XYZ
    dof rx ry rz
    limits (-20.0 45.0)
           (-30.0 30.0)
           (-30.0 30.0)
  end
  begin
     id 13 
     name thorax
     direction 0.0151014 0.999868 0.0059419   
     length 2.14898   
     axis 0 0 0   XYZ
    dof rx ry rz
    limits (-20.0 45.0)
           (-30.0 30.0)
           (-30.0 30.0)
  end
  begin
     id 14 
     name lowerneck
     direction -0.0249197 0.989906 0.139515   
     length 1.6861   
     axis 0 0 0   XYZ
    dof rx ry rz
    limits (-20.0 45.0)
           (-30.0 30.0)
           (-30.0 30.0)
  end
  begin
     id 15 
     name upperneck
     direction 0.0438463 0.988795 -0.142693   
     length 1.71276   
     axis 0 0 0   XYZ
    dof rx ry rz
    limits (-20.0 45.0)
           (-30.0 30.0)
           (-30.0 30.0)
  end
  begin
     id 16
     name head
     direction 0.0148499 0.997845 -0.0639186  
     length 1.7209  
     axis 0 0 0   XYZ
    dof rx ry rz
    limits (-20.0 45.0)
           (-30.0 30.0)
           (-30.0 30.0)
  end
  begin
     id 17 
     name lclavicle
     direction 0.940298 0.323464 -0.105876  
     length 3.9048  
     axis 0 0 0   XYZ
    dof ry rz
    limits (-20.0 10.0)
           (0.0 20.0)
  end
  begin
     id 18 
     name lhumerus
     direction 1 -4.48954e-011 -4.9675e-028   
     length 4.6851   
     axis 180 -30 -90   XYZ
    dof rx ry rz
    limits (-60.0 90.0)
           (-90.0 90.0)
           (-90.0 90.0)
  end
  begin
     id 19
     name lradius
     direction 1 -4.48992e-011 -1.03359e-026   
     length 3.39626   
     axis 180 -30 -90   XYZ
    dof rx
    limits (-10.0 170.0)
  end
  begin
     id 20
     name lwrist
     direction 1 -4.48906e-011 -1.67336e-026   
     length 1.69813   
     axis 9.90442e-015 90 90   XYZ
    dof ry
    limits (-180.0 0.0)
 end
  begin
     id 21 
     name lhand
     direction 1 -4.49006e-011 -3.34673e-026   
     length 0.486078   
     axis 2.1355e-014 90 90   XYZ
    dof rx rz
    limits (-90.0 90.0)
           (-45.0 45.0)
  end
  begin
     id 22 
     name lfingers
     direction 1 -4.48992e-011 -6.69345e-026   
     length 0.391889   
     axis 4.27099e-014 90 90   XYZ
    dof rx
    limits (0.0 90.0)
  end
  begin
     id 23
     name lthumb
     direction 0.707107 -6.34926e-011 0.707107   
     length 0.562676   
     axis -90 45 2.85299e-015   XYZ
    dof rx rz
    limits (-45.0 45.0)
           (-45.0 45.0)
  end
  begin
     id 24 
     name rclavicle
     direction -0.882459 0.414895 -0.221648   
     length 3.44646  
     axis 0 0 0   XYZ 
    dof ry rz
    limits (-10.0 20.0)
           (-20.0 0.0)
  end
  begin
     id 25 
     name rhumerus
     direction -1 -4.48962e-011 -2.37984e-027  
     length 5.55576   
     axis 180 30 90   XYZ
    dof rx ry rz
    limits (-90.0 60.0)
           (-90.0 90.0)
           (-90.0 90.0)
  end
  begin
     id 26 
     name rradius
     direction -1 -4.48982e-011 -6.86791e-027   
     length 3.32774   
     axis 180 30 90   XYZ
    dof rx
    limits (-10.0 170.0)
  end
  begin
     id 27 
     name rwrist
     direction -1 -4.48961e-011 -1.67336e-026   
     length 1.66387   
     axis 9.90442e-015 -90 -90   XYZ
    dof ry
    limits (-180.0 0.0)
  end
  begin
     id 28
     name rhand
     direction -1 -4.4897e-011 -3.34673e-026   
     length 0.507628   
     axis 2.1355e-014 -90 -90   XYZ
    dof rx rz
    limits (-90.0 90.0)
           (-45.0 45.0)
  end
  begin
     id 29
     name rfingers
     direction -1 -4.48854e-011 -6.69345e-026   
     length 0.409263   
     axis 4.27099e-014 -90 -90   XYZ
    dof rx
    limits (0.0 90.0)
  end
  begin
     id 30
     name rthumb
     direction -0.707107 -6.34913e-011 0.707107   
     length 0.587622   
     axis -90 -45 -2.85299e-015   XYZ
    dof rx rz
    limits (-45.0 45.0)
           (-45.0 45.0)
  end
:hierarchy
  begin
    root lhipjoint rhipjoint lowerback
    lhipjoint lfemur
    lfemur ltibia
    ltibia lfoot
    lfoot ltoes
    rhipjoint rfemur
    rfemur rtibia
    rtibia rfoot
    rfoot rtoes
    lowerback upperback
    upperback thorax
    thorax lowerneck lclavicle rclavicle
    lowerneck upperneck
    upperneck head
    lclavicle lhumerus
    lhumerus lradius
    lradius lwrist
    lwrist lhand lthumb
    lhand lfingers
    rclavicle rhumerus
    rhumerus rradius
    rradius rwrist
    rwrist rhand rthumb
    rhand rfingers
  end

#!OML:ASF E:\motion texture\Top Level 1\Subject 1\Session 1\male.ASF
:FULLY-SPECIFIED
:DEGREES
81
root 16.9729 17.6889 5.11095 135.543 -76.3862 -133.12
lowerback -0.0310926 4.1856 8.58356
upperback -2.39796 5.63749 2.63797
thorax -1.91409 2.63416 -2.10914
lowerneck -20.5558 -4.23233 -5.96243
upperneck 17.0974 -5.70082 7.47674
head 9.15292 -2.26707 2.75549
rclavicle 3.84245e-014 2.96189e-014
rhumerus -2.88684 20.8455 -81.7084
rradius 74.1912
rwrist -10.5396
rhand -7.23284 -9.71456
rfingers 7.12502
rthumb 18.6469 -38.8408
lclavicle 3.84245e-014 2.96189e-014
lhumerus -55.0426 -3.86763 72.2926
lradius 39.3194
lwrist -7.14519
lhand -3.35893 5.42336
lfingers 7.12502
lthumb 22.3695 34.1483
rfemur 10.7322 8.19042 35.5621
rtibia 20.2126
rfoot -13.7988 -4.93589
rtoes -5.32342
lfemur -63.7268 10.4312 -7.99494
ltibia 65.1745
lfoot 387.528 0.788854
ltoes 3.30769
82
root 16.7881 17.6658 5.11457 136.351 -76.3496 -133.603
lowerback -0.538291 4.17024 8.53012
upperback -2.56809 5.56512 2.59954
thorax -1.81419 2.59688 -2.0873
lowerneck -20.4426 -4.13884 -5.89767
upperneck 17.2056 -5.59976 7.44359
head 9.15968 -2.22163 2.74983
rclavicle 2.16675e-014 5.08889e-014
rhumerus -4.6852 21.1479 -82.4433
rradius 73.6981
rwrist -10.1308
rhand -7.18293 -9.6755
rfingers 7.12502
rthumb 18.6949 -38.7971
lclavicle 2.16675e-014 5.08889e-014
lhumerus -54.427 -3.40237 72.9901
lradius 39.5469
lwrist -7.11021
lhand -3.3914 5.6565
lfingers 7.12502
lthumb 22.3383 34.3851
rfemur 10.9533 8.10601 35.2944
rtibia 20.2989
rfoot -13.6938 -4.62763
rtoes -5.98599
lfemur -60.7953 10.5637 -7.83234
ltibia 61.8669
lfoot 387.291 0.626517
ltoes 2.88872
83
root 16.5969 17.6413 5.12005 137.116 -76.3485 -134.06
lowerback -1.05765 4.14508 8.45951
upperback -2.75083 5.47882 2.56569
thorax -1.72392 2.55191 -2.05207
lowerneck -20.3205 -4.04779 -5.83603
upperneck 17.3562 -5.5028 7.40123
head 9.17965 -2.1793 2.74123
rclavicle -5.5933e-014 -3.97569e-015
rhumerus -6.57791 21.4228 -83.1776
rradius 73.187
rwrist -9.6081
rhand -7.13796 -9.61389
rfingers 7.12502
rthumb 18.7381 -38.7314
lclavicle -5.5933e-014 -3.97569e-015
lhumerus -53.8 -2.97883 73.7729
lradius 39.7701
lwrist -7.01816
lhand -3.42265 5.95806
lfingers 7.12502
lthumb 22.3083 34.6903
rfemur 11.1594 7.99036 34.9744
rtibia 20.4698
rfoot -13.549 -4.26459
rtoes -6.65757
lfemur -57.8266 10.5536 -7.68037
ltibia 58.6328
lfoot 387.021 0.436731
ltoes 2.35208
84
root 16.3993 17.6152 5.12747 137.81 -76.3923 -134.479
lowerback -1.58677 4.10852 8.37312
upperback -2.93314 5.37635 2.53367
thorax -1.63079 2.49901 -2.00696
lowerneck -20.1955 -3.9631 -5.7769
upperneck 17.5349 -5.41427 7.35056
head 9.20935 -2.14195 2.72913
rclavicle 1.86299e-014 -8.34896e-015
rhumerus -8.55238 21.6511 -83.9044
rradius 72.6526
rwrist -8.97589
rhand -7.07136 -9.55639
rfingers 7.12502
rthumb 18.8022 -38.6677
lclavicle 1.86299e-014 -8.34896e-015
lhumerus -53.1418 -2.62027 74.6544
lradius 39.9859
lwrist -6.83845
lhand -3.51239 6.27021
lfingers 7.12502
lthumb 22.2221 35.0127
rfemur 11.3458 7.83075 34.5964
rtibia 20.7507
rfoot -13.3459 -3.84603
rtoes -7.3943
lfemur -54.8228 10.3688 -7.54425
ltibia 55.5294
lfoot 386.382 0.205433
ltoes 0.864268
85
root 16.195 17.5882 5.13701 138.448 -76.4758 -134.896
lowerback -2.10189 4.06319 8.2704
upperback -3.10962 5.26403 2.50461
thorax -1.54193 2.44135 -1.95216
lowerneck -20.0664 -3.88761 -5.72734
upperneck 17.7368 -5.33685 7.2968
head 9.24737 -2.11085 2.71612
rclavicle -1.41945e-014 -1.59028e-014
rhumerus -10.6177 21.8169 -84.6211
rradius 72.0961
rwrist -8.27515
rhand -6.99111 -9.52523
rfingers 7.12502
rthumb 18.8794 -38.629
lclavicle -1.41945e-014 -1.59028e-014
lhumerus -52.4481 -2.33999 75.6397
lradius 40.1966
lwrist -6.59187
lhand -3.68124 6.51086
lfingers 7.12502
lthumb 22.06 35.2726
rfemur 11.5165 7.62222 34.155
rtibia 21.1722
rfoot -13.0674 -3.36397
rtoes -8.221
lfemur -51.7717 10.013 -7.44192
ltibia 52.6264
lfoot 385.006 -0.146978
ltoes -1.25616
86
root 15.9849 17.5597 5.14899 138.946 -76.6207 -135.213
lowerback -2.62172 3.99993 8.16003
upperback -3.27412 5.12741 2.47557
thorax -1.4407 2.37231 -1.89434
lowerneck -19.9379 -3.82218 -5.68934
upperneck 17.9458 -5.27115 7.24652
head 9.28936 -2.08571 2.70456
rclavicle -1.3859e-014 -4.27387e-015
rhumerus -12.7504 21.9127 -85.3182
rradius 71.5097
rwrist -7.55792
rhand -6.89584 -9.52045
rfingers 7.12502
rthumb 18.971 -38.6153
lclavicle -1.3859e-014 -4.27387e-015
lhumerus -51.6944 -2.14144 76.7267
lradius 40.4059
lwrist -6.30246
lhand -3.93795 6.66801
lfingers 7.12502
lthumb 21.8135 35.4586
rfemur 11.6211 7.34167 33.6474
rtibia 21.7796
rfoot -12.6869 -2.82844
rtoes -9.11149
lfemur -48.7433 9.48796 -7.41913
ltibia 50.0136
lfoot 382.541 -0.702449
ltoes -3.66995
87
root 15.7699 17.5308 5.16351 139.342 -76.8221 -135.476
lowerback -3.13019 3.92196 8.03854
upperback -3.42452 4.97298 2.44418
thorax -1.33324 2.29513 -1.83531
lowerneck -19.8109 -3.76602 -5.65626
upperneck 18.1564 -5.21651 7.1948
head 9.33311 -2.06631 2.6917
rclavicle 8.83349e-015 -4.57205e-015
rhumerus -14.9461 21.9285 -85.9935
rradius 70.8836
rwrist -6.88948
rhand -6.78314 -9.525
rfingers 7.12502
rthumb 19.0794 -38.6092
lclavicle 8.83349e-015 -4.57205e-015
lhumerus -50.8811 -2.03471 77.9111
lradius 40.6283
lwrist -6.00118
lhand -4.28016 6.68004
lfingers 7.12502
lthumb 21.4849 35.5086
rfemur 11.6382 6.9825 33.0617
rtibia 22.6147
rfoot -12.1736 -2.2226
rtoes -10.0249
lfemur -45.7621 8.84854 -7.5172
ltibia 47.6975
lfoot 378.935 -1.51029
ltoes -5.78235
88
root 15.5521 17.5022 5.18061 139.637 -77.0809 -135.67
lowerback -3.62278 3.82594 7.90342
upperback -3.56842 4.79746 2.411
thorax -1.23038 2.20763 -1.77409
lowerneck -19.684 -3.71469 -5.62173
upperneck 18.3689 -5.16744 7.136
head 9.37774 -2.05029 2.67531
rclavicle -2.05059e-014 -2.55438e-014
rhumerus -17.1959 21.8628 -86.6452
rradius 70.2053
rwrist -6.30751
rhand -6.67774 -9.50678
rfingers 7.12502
rthumb 19.1807 -38.5809
lclavicle -2.05059e-014 -2.55438e-014
lhumerus -50.0106 -2.01033 79.1778
lradius 40.8798
lwrist -5.72459
lhand -4.68757 6.55155
lfingers 7.12502
lthumb 21.0936 35.4242
rfemur 11.5022 6.54122 32.395
rtibia 23.7377
rfoot -11.4782 -1.54424
rtoes -10.9358
lfemur -42.8924 8.16992 -7.77031
ltibia 45.6031
lfoot 374.497 -2.46473
ltoes -6.95817
89
root 15.3332 17.475 5.20044 139.901 -77.4381 -135.868
lowerback -4.06671 3.70243 7.71382
upperback -3.76355 4.59587 2.36347
thorax -1.21252 2.10375 -1.70595
lowerneck -19.3664 -3.65091 -5.58279
upperneck 18.5521 -5.10932 7.06782
head 9.37669 -2.03599 2.65726
rclavicle -4.18069e-015 2.1916e-014
rhumerus -19.6177 21.7007 -87.3174
rradius 69.4687
rwrist -5.819
rhand -6.62586 -9.47118
rfingers 7.12502
rthumb 19.2306 -38.5404
lclavicle -4.18069e-015 2.1916e-014
lhumerus -49.1862 -2.02229 80.4379
lradius 41.1627
lwrist -5.76767
lhand -4.70512 6.21977
lfingers 7.12502
lthumb 21.0767 35.0943
rfemur 11.175 5.99512 31.5955
rtibia 25.1922
rfoot -10.5315 -0.796921
rtoes -11.7987
lfemur -40.1565 7.49353 -8.24138
ltibia 43.5808
lfoot 369.781 -3.26493
ltoes -6.69248
90
root 15.1156 17.451 5.22177 140.157 -77.928 -136.101
lowerback -4.56227 3.54132 7.43223
upperback -3.90913 4.34235 2.29813
thorax -1.12251 1.98007 -1.60497
lowerneck -18.9534 -3.57905 -5.53289
upperneck 18.6473 -5.04064 6.99599
head 9.32648 -2.0191 2.63744
rclavicle 1.59649e-014 -3.30976e-014
rhumerus -22.0287 21.428 -87.9309
rradius 68.6617
rwrist -5.41094
rhand -6.57825 -9.40975
rfingers 7.12502
rthumb 19.2764 -38.4744
lclavicle 1.59649e-014 -3.30976e-014
lhumerus -48.2586 -2.12624 81.7893
lradius 41.4926
lwrist -5.69263
lhand -4.81236 6.00426
lfingers 7.12502
lthumb 20.9737 34.8902
rfemur 10.6218 5.32818 30.6431
rtibia 27.0211
rfoot -9.23323 -0.0246565
rtoes -12.5626
lfemur -37.5685 6.86982 -8.96063
ltibia 41.5082
lfoot 365.422 -3.68393
ltoes -4.96844
91
root 14.9022 17.4319 5.24396 140.389 -78.5865 -136.367
lowerback -4.92255 3.32184 7.00525
upperback -4.0552 4.03519 2.21482
thorax -1.11852 1.83094 -1.45573
lowerneck -18.6193 -3.51078 -5.46911
upperneck 18.7831 -4.97529 6.90666
head 9.30394 -2.00255 2.60848
rclavicle 3.17186e-014 -1.88845e-014
rhumerus -24.4552 21.0257 -88.4801
rradius 67.7711
rwrist -5.02455
rhand -6.62074 -9.30089
rfingers 7.12502
rthumb 19.2355 -38.3696
lclavicle 3.17186e-014 -1.88845e-014
lhumerus -47.2503 -2.32192 83.2143
lradius 41.8669
lwrist -5.52467
lhand -4.89123 5.90939
lfingers 7.12502
lthumb 20.8979 34.8037
rfemur 9.81572 4.50751 29.5171
rtibia 29.2323
rfoot -7.42205 0.708474
rtoes -13.1702
lfemur -35.1451 6.30579 -9.9351
ltibia 39.344
lfoot 361.963 -3.67723
ltoes -1.9688
92
root 14.6956 17.4187 5.26671 140.4 -79.4539 -136.487
lowerback -5.16435 3.03011 6.43829
upperback -4.14948 3.65249 2.10774
thorax -1.1348 1.64945 -1.26377
lowerneck -18.4226 -3.4581 -5.40082
upperneck 18.9234 -4.92565 6.82112
head 9.30909 -1.98899 2.57688
rclavicle -2.18663e-014 3.10601e-015
rhumerus -26.7804 20.4637 -88.9051
rradius 66.7765
rwrist -4.57801
rhand -6.69147 -9.1846
rfingers 7.12502
rthumb 19.1675 -38.2601
lclavicle -2.18663e-014 3.10601e-015
lhumerus -46.0562 -2.64843 84.7265
lradius 42.2655
lwrist -5.13121
lhand -5.07362 6.02018
lfingers 7.12502
lthumb 20.7227 34.9338
rfemur 8.75535 3.51149 28.235
rtibia 31.8119
rfoot -4.93459 1.31582
rtoes -13.4993
lfemur -32.9096 5.72642 -11.117
ltibia 37.1707
lfoot 359.472 -3.44187
ltoes 1.16565
93
root 14.4983 17.4113 5.28893 140.128 -80.4955 -136.391
lowerback -5.22908 2.67796 5.7443
upperback -4.19127 3.21322 1.9847
thorax -1.19831 1.44425 -1.02785
lowerneck -18.4551 -3.43599 -5.34839
upperneck 19.0945 -4.90878 6.76136
head 9.37017 -1.9831 2.55091
rclavicle 1.33007e-014 2.28478e-014
rhumerus -28.9523 19.7232 -89.1701
rradius 65.6521
rwrist -4.0294
rhand -6.83167 -9.04179
rfingers 7.12502
rthumb 19.0327 -38.1306
lclavicle 1.33007e-014 2.28478e-014
lhumerus -44.6264 -3.13466 86.3181
lradius 42.6601
lwrist -4.49752
lhand -5.44627 6.28383
lfingers 7.12502
lthumb 20.3646 35.2361
rfemur 7.4285 2.3815 26.8475
rtibia 34.7314
rfoot -1.63847 1.72072
rtoes -13.1295
lfemur -30.9246 5.10139 -12.4182
ltibia 35.1978
lfoot 357.811 -3.21446
ltoes 3.79692
